<?xml version="1.0" encoding="utf-8"?>
<svg version="1.1" xmlns:xlink="http://www.w3.org/1999/xlink" width="12px" height="12px" viewBox="442 293.5  12 12" xmlns="http://www.w3.org/2000/svg">
  <path d="M 448 293.5  C 451.36 293.5  454 296.14  454 299.5  C 454 302.86  451.36 305.5  448 305.5  C 444.64 305.5  442 302.86  442 299.5  C 442 296.14  444.64 293.5  448 293.5  Z " fill-rule="nonzero" fill="#ffffff" stroke="none" />
  <path d="M 448 294  C 451.08 294  453.5 296.42  453.5 299.5  C 453.5 302.58  451.08 305  448 305  C 444.92 305  442.5 302.58  442.5 299.5  C 442.5 296.42  444.92 294  448 294  Z " stroke-width="1" stroke="#797979" fill="none" />
  <path d="M 448 302.5  C 446.32 302.5  445 301.18  445 299.5  C 445 297.82  446.32 296.5  448 296.5  C 449.68 296.5  451 297.82  451 299.5  C 451 301.18  449.68 302.5  448 302.5  " fill-rule="nonzero" fill="#797979" stroke="none" />
</svg>