<?xml version="1.0" encoding="utf-8"?>
<svg version="1.1" xmlns:xlink="http://www.w3.org/1999/xlink" width="25px" height="16px" xmlns="http://www.w3.org/2000/svg">
  <g transform="matrix(1 0 0 1 -760 -212 )">
    <path d="M 24.37744140625 11.10625  C 24.79248046875 10.11875  25 9.08333333333333  25 8  C 25 6.91666666666667  24.79248046875 5.88125  24.37744140625 4.89375  C 23.96240234375 3.90625  23.406982421875 3.05625  22.711181640625 2.34375  C 22.015380859375 1.63125  21.185302734375 1.0625  20.220947265625 0.637499999999999  C 19.256591796875 0.2125  18.2454427083333 0  17.1875 0  L 7.8125 0  C 6.75455729166667 0  5.743408203125 0.2125  4.779052734375 0.637499999999999  C 3.814697265625 1.0625  2.984619140625 1.63125  2.288818359375 2.34375  C 1.593017578125 3.05625  1.03759765625 3.90625  0.62255859375 4.89375  C 0.20751953125 5.88125  0 6.91666666666667  0 8  C 0 9.08333333333333  0.20751953125 10.11875  0.62255859375 11.10625  C 1.03759765625 12.09375  1.593017578125 12.94375  2.288818359375 13.65625  C 2.984619140625 14.36875  3.814697265625 14.9375  4.779052734375 15.3625  C 5.743408203125 15.7875  6.75455729166667 16  7.8125 16  L 17.1875 16  C 18.2454427083333 16  19.256591796875 15.7875  20.220947265625 15.3625  C 21.185302734375 14.9375  22.015380859375 14.36875  22.711181640625 13.65625  C 23.406982421875 12.94375  23.96240234375 12.09375  24.37744140625 11.10625  Z M 10.235595703125 13.89375  C 9.466552734375 14.23125  8.65885416666667 14.4  7.8125 14.4  C 6.96614583333333 14.4  6.158447265625 14.23125  5.389404296875 13.89375  C 4.620361328125 13.55625  3.955078125 13.1  3.3935546875 12.525  C 2.83203125 11.95  2.386474609375 11.26875  2.056884765625 10.48125  C 1.727294921875 9.69375  1.5625 8.86666666666667  1.5625 8  C 1.5625 7.13333333333333  1.727294921875 6.30625  2.056884765625 5.51875  C 2.386474609375 4.73125  2.83203125 4.05  3.3935546875 3.475  C 3.955078125 2.9  4.620361328125 2.44375  5.389404296875 2.10625  C 6.158447265625 1.76875  6.96614583333333 1.6  7.8125 1.6  C 8.65885416666667 1.6  9.466552734375 1.76875  10.235595703125 2.10625  C 11.004638671875 2.44375  11.669921875 2.9  12.2314453125 3.475  C 12.79296875 4.05  13.238525390625 4.73125  13.568115234375 5.51875  C 13.897705078125 6.30625  14.0625 7.13333333333333  14.0625 8  C 14.0625 8.86666666666667  13.897705078125 9.69375  13.568115234375 10.48125  C 13.238525390625 11.26875  12.79296875 11.95  12.2314453125 12.525  C 11.669921875 13.1  11.004638671875 13.55625  10.235595703125 13.89375  Z " fill-rule="nonzero" fill="#877d7d" stroke="none" fill-opacity="0.929411764705882" transform="matrix(1 0 0 1 760 212 )" />
  </g>
</svg>