<?xml version="1.0" encoding="utf-8"?>
<svg version="1.1" xmlns:xlink="http://www.w3.org/1999/xlink" width="28px" height="28px" xmlns="http://www.w3.org/2000/svg">
  <g transform="matrix(1 0 0 1 -704 -552 )">
    <path d="M 17.0709134615385 10.9290865384615  C 17.177483974359 11.035657051282  17.2307692307692 11.161858974359  17.2307692307692 11.3076923076923  L 17.2307692307692 12.3846153846154  C 17.2307692307692 12.5304487179487  17.177483974359 12.6566506410256  17.0709134615385 12.7632211538462  C 16.9643429487179 12.8697916666667  16.838141025641 12.9230769230769  16.6923076923077 12.9230769230769  L 12.9230769230769 12.9230769230769  L 12.9230769230769 16.6923076923077  C 12.9230769230769 16.838141025641  12.8697916666667 16.9643429487179  12.7632211538462 17.0709134615385  C 12.6566506410256 17.177483974359  12.5304487179487 17.2307692307692  12.3846153846154 17.2307692307692  L 11.3076923076923 17.2307692307692  C 11.161858974359 17.2307692307692  11.0356570512821 17.177483974359  10.9290865384615 17.0709134615385  C 10.822516025641 16.9643429487179  10.7692307692308 16.838141025641  10.7692307692308 16.6923076923077  L 10.7692307692308 12.9230769230769  L 7 12.9230769230769  C 6.85416666666667 12.9230769230769  6.72796474358974 12.8697916666667  6.62139423076923 12.7632211538462  C 6.51482371794872 12.6566506410256  6.46153846153846 12.5304487179487  6.46153846153846 12.3846153846154  L 6.46153846153846 11.3076923076923  C 6.46153846153846 11.161858974359  6.51482371794872 11.035657051282  6.62139423076923 10.9290865384615  C 6.72796474358974 10.822516025641  6.85416666666667 10.7692307692308  7 10.7692307692308  L 10.7692307692308 10.7692307692308  L 10.7692307692308 7  C 10.7692307692308 6.85416666666667  10.822516025641 6.72796474358974  10.9290865384615 6.62139423076923  C 11.0356570512821 6.51482371794872  11.161858974359 6.46153846153846  11.3076923076923 6.46153846153846  L 12.3846153846154 6.46153846153846  C 12.5304487179487 6.46153846153846  12.6566506410256 6.51482371794872  12.7632211538462 6.62139423076923  C 12.8697916666667 6.72796474358974  12.9230769230769 6.85416666666667  12.9230769230769 7  L 12.9230769230769 10.7692307692308  L 16.6923076923077 10.7692307692308  C 16.838141025641 10.7692307692308  16.9643429487179 10.822516025641  17.0709134615385 10.9290865384615  Z M 17.171875 17.171875  C 18.6470352564103 15.6967147435897  19.3846153846154 13.9214743589744  19.3846153846154 11.8461538461538  C 19.3846153846154 9.77083333333333  18.6470352564103 7.99559294871795  17.171875 6.52043269230769  C 15.6967147435897 5.04527243589743  13.9214743589744 4.30769230769231  11.8461538461538 4.30769230769231  C 9.77083333333333 4.30769230769231  7.99559294871795 5.04527243589743  6.52043269230769 6.52043269230769  C 5.04527243589744 7.99559294871795  4.30769230769231 9.77083333333333  4.30769230769231 11.8461538461538  C 4.30769230769231 13.9214743589744  5.04527243589744 15.6967147435897  6.52043269230769 17.171875  C 7.99559294871795 18.6470352564103  9.77083333333333 19.3846153846154  11.8461538461538 19.3846153846154  C 13.9214743589744 19.3846153846154  15.6967147435897 18.6470352564103  17.171875 17.171875  Z M 27.3774038461538 24.3317307692308  C 27.7924679487179 24.7467948717949  28 25.2516025641026  28 25.8461538461538  C 28 26.4407051282051  27.7896634615385 26.9483173076923  27.3689903846154 27.3689903846154  C 26.9483173076923 27.7896634615385  26.4407051282051 28  25.8461538461538 28  C 25.2403846153846 28  24.7355769230769 27.786858974359  24.3317307692308 27.3605769230769  L 18.5600961538462 21.6057692307692  C 16.5520833333333 22.9967948717949  14.3141025641026 23.6923076923077  11.8461538461538 23.6923076923077  C 10.2419871794872 23.6923076923077  8.70793269230769 23.3810096153846  7.24399038461538 22.7584134615385  C 5.78004807692308 22.1358173076923  4.51802884615385 21.2944711538462  3.45793269230769 20.234375  C 2.39783653846154 19.1742788461538  1.55649038461539 17.9122596153846  0.933894230769231 16.4483173076923  C 0.311298076923077 14.984375  0 13.4503205128205  0 11.8461538461538  C 0 10.2419871794872  0.311298076923077 8.70793269230769  0.933894230769231 7.24399038461538  C 1.55649038461539 5.78004807692308  2.39783653846154 4.51802884615385  3.45793269230769 3.45793269230769  C 4.51802884615385 2.39783653846154  5.78004807692308 1.55649038461538  7.24399038461538 0.933894230769232  C 8.70793269230769 0.311298076923076  10.2419871794872 0  11.8461538461538 0  C 13.4503205128205 0  14.984375 0.311298076923076  16.4483173076923 0.933894230769232  C 17.9122596153846 1.55649038461538  19.1742788461538 2.39783653846154  20.234375 3.45793269230769  C 21.2944711538462 4.51802884615385  22.1358173076923 5.78004807692308  22.7584134615385 7.24399038461538  C 23.3810096153846 8.70793269230769  23.6923076923077 10.2419871794872  23.6923076923077 11.8461538461538  C 23.6923076923077 14.3141025641026  22.9967948717949 16.5520833333333  21.6057692307692 18.5600961538462  L 27.3774038461538 24.3317307692308  Z " fill-rule="nonzero" fill="#939090" stroke="none" fill-opacity="0.929411764705882" transform="matrix(1 0 0 1 704 552 )" />
  </g>
</svg>