<?xml version="1.0" encoding="utf-8"?>
<svg version="1.1" xmlns:xlink="http://www.w3.org/1999/xlink" width="27px" height="16px" xmlns="http://www.w3.org/2000/svg">
  <g transform="matrix(1 0 0 1 -870 -250 )">
    <path d="M 26.32763671875 11.10625  C 26.77587890625 10.11875  27 9.08333333333333  27 8  C 27 6.91666666666667  26.77587890625 5.88125  26.32763671875 4.89375  C 25.87939453125 3.90625  25.279541015625 3.05625  24.528076171875 2.34375  C 23.776611328125 1.63125  22.880126953125 1.0625  21.838623046875 0.637499999999999  C 20.797119140625 0.2125  19.705078125 0  18.5625 0  L 8.4375 0  C 7.294921875 0  6.202880859375 0.2125  5.161376953125 0.637499999999999  C 4.119873046875 1.0625  3.223388671875 1.63125  2.471923828125 2.34375  C 1.720458984375 3.05625  1.12060546875 3.90625  0.67236328125 4.89375  C 0.22412109375 5.88125  0 6.91666666666667  0 8  C 0 9.08333333333333  0.22412109375 10.11875  0.67236328125 11.10625  C 1.12060546875 12.09375  1.720458984375 12.94375  2.471923828125 13.65625  C 3.223388671875 14.36875  4.119873046875 14.9375  5.161376953125 15.3625  C 6.202880859375 15.7875  7.294921875 16  8.4375 16  L 18.5625 16  C 19.705078125 16  20.797119140625 15.7875  21.838623046875 15.3625  C 22.880126953125 14.9375  23.776611328125 14.36875  24.528076171875 13.65625  C 25.279541015625 12.94375  25.87939453125 12.09375  26.32763671875 11.10625  Z M 11.054443359375 13.89375  C 10.223876953125 14.23125  9.3515625 14.4  8.4375 14.4  C 7.5234375 14.4  6.651123046875 14.23125  5.820556640625 13.89375  C 4.989990234375 13.55625  4.271484375 13.1  3.6650390625 12.525  C 3.05859375 11.95  2.577392578125 11.26875  2.221435546875 10.48125  C 1.865478515625 9.69375  1.6875 8.86666666666667  1.6875 8  C 1.6875 7.13333333333333  1.865478515625 6.30625  2.221435546875 5.51875  C 2.577392578125 4.73125  3.05859375 4.05  3.6650390625 3.475  C 4.271484375 2.9  4.989990234375 2.44375  5.820556640625 2.10625  C 6.651123046875 1.76875  7.5234375 1.6  8.4375 1.6  C 9.3515625 1.6  10.223876953125 1.76875  11.054443359375 2.10625  C 11.885009765625 2.44375  12.603515625 2.9  13.2099609375 3.475  C 13.81640625 4.05  14.297607421875 4.73125  14.653564453125 5.51875  C 15.009521484375 6.30625  15.1875 7.13333333333333  15.1875 8  C 15.1875 8.86666666666667  15.009521484375 9.69375  14.653564453125 10.48125  C 14.297607421875 11.26875  13.81640625 11.95  13.2099609375 12.525  C 12.603515625 13.1  11.885009765625 13.55625  11.054443359375 13.89375  Z " fill-rule="nonzero" fill="#877d7d" stroke="none" fill-opacity="0.929411764705882" transform="matrix(1 0 0 1 870 250 )" />
  </g>
</svg>