<?xml version="1.0" encoding="utf-8"?>
<svg version="1.1" xmlns:xlink="http://www.w3.org/1999/xlink" width="27px" height="16px" xmlns="http://www.w3.org/2000/svg">
  <g transform="matrix(1 0 0 1 -870 -402 )">
    <path d="M 0.67236328125 11.10625  C 0.22412109375 10.11875  0 9.08333333333333  0 8  C 0 6.91666666666667  0.22412109375 5.88125  0.67236328125 4.89375  C 1.12060546875 3.90625  1.720458984375 3.05625  2.471923828125 2.34375  C 3.223388671875 1.63125  4.119873046875 1.0625  5.161376953125 0.637499999999999  C 6.202880859375 0.2125  7.294921875 0  8.4375 0  L 18.5625 0  C 19.705078125 0  20.797119140625 0.2125  21.838623046875 0.637499999999999  C 22.880126953125 1.0625  23.776611328125 1.63125  24.528076171875 2.34375  C 25.279541015625 3.05625  25.87939453125 3.90625  26.32763671875 4.89375  C 26.77587890625 5.88125  27 6.91666666666667  27 8  C 27 9.08333333333333  26.77587890625 10.11875  26.32763671875 11.10625  C 25.87939453125 12.09375  25.279541015625 12.94375  24.528076171875 13.65625  C 23.776611328125 14.36875  22.880126953125 14.9375  21.838623046875 15.3625  C 20.797119140625 15.7875  19.705078125 16  18.5625 16  L 8.4375 16  C 7.294921875 16  6.202880859375 15.7875  5.161376953125 15.3625  C 4.119873046875 14.9375  3.223388671875 14.36875  2.471923828125 13.65625  C 1.720458984375 12.94375  1.12060546875 12.09375  0.67236328125 11.10625  Z M 15.945556640625 13.89375  C 16.776123046875 14.23125  17.6484375 14.4  18.5625 14.4  C 19.4765625 14.4  20.348876953125 14.23125  21.179443359375 13.89375  C 22.010009765625 13.55625  22.728515625 13.1  23.3349609375 12.525  C 23.94140625 11.95  24.422607421875 11.26875  24.778564453125 10.48125  C 25.134521484375 9.69375  25.3125 8.86666666666667  25.3125 8  C 25.3125 7.13333333333333  25.134521484375 6.30625  24.778564453125 5.51875  C 24.422607421875 4.73125  23.94140625 4.05  23.3349609375 3.475  C 22.728515625 2.9  22.010009765625 2.44375  21.179443359375 2.10625  C 20.348876953125 1.76875  19.4765625 1.6  18.5625 1.6  C 17.6484375 1.6  16.776123046875 1.76875  15.945556640625 2.10625  C 15.114990234375 2.44375  14.396484375 2.9  13.7900390625 3.475  C 13.18359375 4.05  12.702392578125 4.73125  12.346435546875 5.51875  C 11.990478515625 6.30625  11.8125 7.13333333333333  11.8125 8  C 11.8125 8.86666666666667  11.990478515625 9.69375  12.346435546875 10.48125  C 12.702392578125 11.26875  13.18359375 11.95  13.7900390625 12.525  C 14.396484375 13.1  15.114990234375 13.55625  15.945556640625 13.89375  Z " fill-rule="nonzero" fill="#877d7d" stroke="none" fill-opacity="0.929411764705882" transform="matrix(1 0 0 1 870 402 )" />
  </g>
</svg>