<?xml version="1.0" encoding="utf-8"?>
<svg version="1.1" xmlns:xlink="http://www.w3.org/1999/xlink" width="20px" height="20px" xmlns="http://www.w3.org/2000/svg">
  <g transform="matrix(1 0 0 1 -695 -234 )">
    <path d="M 13.0034722222222 0.3125  C 13.2233796296296 0.52083333333333  13.3333333333333 0.76754385964912  13 1.05263157894737  L 13 18.9473684210526  C 13.3333333333333 19.2324561403509  13.2233796296296 19.4791666666667  13.0034722222222 19.6875  C 12.7835648148148 19.8958333333333  12.5231481481481 20  12.2222222222222 20  C 11.9212962962963 20  11.6608796296296 19.8958333333333  11.4409722222222 19.6875  L 5.65972222222222 14.2105263157895  L 1.11111111111111 14.2105263157895  C 0.810185185185185 14.2105263157895  0.549768518518518 14.1063596491228  0.329861111111111 13.8980263157895  C 0.109953703703704 13.6896929824561  0 13.4429824561404  0 13.1578947368421  L 0 6.84210526315789  C 0 6.55701754385965  0.109953703703704 6.31030701754386  0.329861111111111 6.10197368421053  C 0.549768518518518 5.89364035087719  0.810185185185185 5.78947368421053  1.11111111111111 5.78947368421053  L 5.65972222222222 5.78947368421053  L 11.4409722222222 0.3125  C 11.6608796296296 0.104166666666665  11.9212962962963 0  12.2222222222222 0  C 12.5231481481481 0  12.7835648148148 0.104166666666665  13.0034722222222 0.3125  Z M 19.2621527777778 7.66447368421053  C 19.7540509259259 8.38815789473684  20 9.16666666666666  20 10  C 20 10.8333333333333  19.7540509259259 11.609100877193  19.2621527777778 12.3273026315789  C 18.7702546296296 13.0455043859649  18.119212962963 13.5581140350877  17.3090277777778 13.8651315789474  C 17.193287037037 13.9199561403509  17.0486111111111 13.9473684210526  16.875 13.9473684210526  C 16.5740740740741 13.9473684210526  16.3136574074074 13.8459429824561  16.09375 13.6430921052632  C 15.8738425925926 13.4402412280702  15.7638888888889 13.1907894736842  15.7638888888889 12.8947368421053  C 15.7638888888889 12.6644736842105  15.8333333333333 12.4698464912281  15.9722222222222 12.3108552631579  C 16.1111111111111 12.1518640350877  16.2789351851852 12.0148026315789  16.4756944444444 11.8996710526316  C 16.6724537037037 11.7845394736842  16.869212962963 11.6584429824561  17.0659722222222 11.5213815789474  C 17.2627314814815 11.3843201754386  17.4305555555556 11.186951754386  17.5694444444444 10.9292763157895  C 17.7083333333333 10.671600877193  17.7777777777778 10.3618421052632  17.7777777777778 10  C 17.7777777777778 9.63815789473684  17.7083333333333 9.32839912280702  17.5694444444444 9.07072368421053  C 17.4305555555556 8.81304824561403  17.2627314814815 8.6156798245614  17.0659722222222 8.47861842105263  C 16.869212962963 8.34155701754386  16.6724537037037 8.21546052631579  16.4756944444444 8.10032894736842  C 16.2789351851852 7.98519736842105  16.1111111111111 7.84813596491228  15.9722222222222 7.68914473684211  C 15.8333333333333 7.53015350877193  15.7638888888889 7.33552631578947  15.7638888888889 7.10526315789474  C 15.7638888888889 6.80921052631579  15.8738425925926 6.55975877192982  16.09375 6.35690789473684  C 16.3136574074074 6.15405701754386  16.5740740740741 6.05263157894737  16.875 6.05263157894737  C 17.0486111111111 6.05263157894737  17.193287037037 6.08004385964912  17.3090277777778 6.13486842105263  C 18.119212962963 6.43092105263158  18.7702546296296 6.94078947368421  19.2621527777778 7.66447368421053  Z " fill-rule="nonzero" fill="#877d7d" stroke="none" fill-opacity="0.929411764705882" transform="matrix(1 0 0 1 695 234 )" />
  </g>
</svg>